<svg xmlns="http://www.w3.org/2000/svg" viewBox="0 0 902.08 206.4"><defs><style>.cls-1{font-size:73.23px;fill:#4d4d4d;font-family:CenturyGothicPro, Century Gothic Pro;}.cls-2{letter-spacing:-0.05em;}.cls-3{letter-spacing:-0.03em;}.cls-4{letter-spacing:-0.01em;}.cls-5{letter-spacing:-0.01em;}.cls-6{letter-spacing:-0.05em;}.cls-7{letter-spacing:0.01em;}.cls-8{letter-spacing:-0.04em;}.cls-9{font-family:CenturyGothicPro-Bold, Century Gothic Pro;font-weight:700;}.cls-10{letter-spacing:-0.03em;}.cls-11{letter-spacing:0.04em;}.cls-12{letter-spacing:0.03em;}.cls-13{letter-spacing:-0.05em;}.cls-14{letter-spacing:-0.02em;}.cls-15{letter-spacing:-0.01em;}.cls-16{letter-spacing:-0.02em;}.cls-17{letter-spacing:-0.01em;}.cls-18{fill:#426e8c;}.cls-19{fill:#5289af;}.cls-20{fill:#86acc7;}</style></defs><g id="Layer_2" data-name="Layer 2"><g id="Layer_3" data-name="Layer 3"><text class="cls-1" transform="translate(242.87 95.54)"><tspan class="cls-2">S</tspan><tspan class="cls-3" x="32.81" y="0">o</tspan><tspan class="cls-4" x="78.95" y="0">c</tspan><tspan class="cls-5" x="125.3" y="0">i</tspan><tspan class="cls-6" x="139.22" y="0">e</tspan><tspan class="cls-7" x="183.45" y="0">t</tspan><tspan x="209.01" y="0">y </tspan><tspan class="cls-8" x="268.55" y="0">o</tspan><tspan x="313.37" y="0">f</tspan><tspan class="cls-9"><tspan class="cls-10" x="0" y="71.61">S</tspan><tspan x="35.52" y="71.61">o</tspan><tspan class="cls-11" x="82.39" y="71.61">f</tspan><tspan class="cls-12" x="105.82" y="71.61">t</tspan><tspan class="cls-13" x="129.62" y="71.61">w</tspan><tspan x="184.55" y="71.61">a</tspan><tspan class="cls-14" x="232.88" y="71.61">r</tspan><tspan x="254.63" y="71.61">e </tspan><tspan class="cls-15" x="322.01" y="71.61">E</tspan><tspan class="cls-3" x="359.36" y="71.61">n</tspan><tspan class="cls-15" x="401.47" y="71.61">gi</tspan><tspan class="cls-3" x="465.91" y="71.61">n</tspan><tspan class="cls-16" x="508.02" y="71.61">e</tspan><tspan x="553.79" y="71.61">e</tspan><tspan class="cls-17" x="600.66" y="71.61">r</tspan><tspan x="623.73" y="71.61">s</tspan></tspan></text><polygon class="cls-18" points="0 167.46 0 142.9 81.19 173.52 81.19 148.39 0 117.61 0 42.54 101.22 80.86 101.22 105.8 20.13 75.21 20.14 100.35 101.22 131.01 101.22 206.4 0 167.46"/><polygon class="cls-19" points="207.88 67.64 126.12 97.83 126.12 123.06 167 108.26 167 132.82 126.05 148.65 126.05 173.27 207.88 143.2 207.88 167.45 105.35 206.4 105.35 80.76 207.88 42.52 207.88 67.64"/><polygon class="cls-20" points="2.02 38.37 103.33 0 124.22 7.8 43.28 38.37 63.12 45.89 144.51 15.23 205.9 38.34 103.24 76.75 83.33 69.08 164.46 38.38 144.92 30.73 62.85 61.37 2.02 38.37"/></g></g></svg>