<svg xmlns="http://www.w3.org/2000/svg" viewBox="0 0 240.3 77.26"><defs><style>.cls-1{opacity:0.98;font-size:45px;fill:#4d4d4d;font-family:CenturyGothicPro-Bold, Century Gothic Pro;font-weight:700;}.cls-2{letter-spacing:-0.04em;}.cls-3{letter-spacing:-0.03em;}.cls-4{fill:#426e8c;}.cls-5{fill:#86acc7;}.cls-6{fill:#5289af;}</style></defs><g id="Layer_2" data-name="Layer 2"><g id="Layer_3" data-name="Layer 3"><text class="cls-1" transform="translate(96.8 52.23)">E<tspan class="cls-2" x="23.4" y="0">v</tspan><tspan class="cls-3" x="46.8" y="0">e</tspan><tspan x="74.47" y="0">nts</tspan></text><path class="cls-4" d="M32.6,51.52,14.66,67.92,17,51.52h-.65a5.69,5.69,0,0,1-5.76-6.7l2.61-18.6a7.91,7.91,0,0,1,3.38-5.31L0,14.64V62.36l38.67,14.9V51.52Z"/><path class="cls-5" d="M20.82,19.52H60.08a6,6,0,0,1,2.84.69l14.94-5.58L38.67,0,0,14.63,16.56,20.9A7.56,7.56,0,0,1,20.82,19.52Z"/><path class="cls-6" d="M77.85,14.64,62.92,20.21a5.71,5.71,0,0,1,2.92,6l-2.62,18.6a8,8,0,0,1-7.64,6.7H38.68V77.26L77.85,62.37Z"/></g></g></svg>