<svg xmlns="http://www.w3.org/2000/svg" viewBox="0 0 322.05 75.1"><defs><style>.cls-1{font-size:45px;fill:#4d4d4d;font-family:CenturyGothicPro-Bold, Century Gothic Pro;font-weight:700;}.cls-2{letter-spacing:-0.02em;}.cls-3{letter-spacing:-0.01em;}.cls-4{letter-spacing:-0.01em;}.cls-5{fill:#426e8c;}.cls-6{fill:#86acc7;}.cls-7{fill:#5289af;}</style></defs><g id="Layer_2" data-name="Layer 2"><g id="Layer_3" data-name="Layer 3"><text class="cls-1" transform="translate(97.44 54.16)"><tspan class="cls-2">M</tspan><tspan class="cls-3" x="39.6" y="0">e</tspan><tspan x="68.17" y="0">ntori</tspan><tspan class="cls-4" x="162.67" y="0">n</tspan><tspan x="189.22" y="0">g</tspan></text><path class="cls-5" d="M20.85,70.39A55,55,0,0,0,33.49,47.23a67,67,0,0,0-15.87,4.38Q25.09,39,31.39,26.53L0,14.64V62.36Z"/><path class="cls-6" d="M37.37,14c2.65,4.29,5.37,8.52,8.13,12.73L77.86,14.63,38.67,0,0,14.63,31.39,26.52Q34.56,20.24,37.37,14Z"/><path class="cls-7" d="M60.69,48.59c-4.8-1-8.31-2.67-16.8-2.43a182.26,182.26,0,0,1,.47,28.94L77.85,62.37V14.64L45.5,26.71Q52.8,37.84,60.69,48.59Z"/></g></g></svg>