<svg xmlns="http://www.w3.org/2000/svg" viewBox="0 0 273.66 77.26"><defs><style>.cls-1{opacity:0.98;font-size:45px;fill:#4d4d4d;font-family:CenturyGothicPro-Bold, Century Gothic Pro;font-weight:700;}.cls-2{letter-spacing:-0.01em;}.cls-3{letter-spacing:-0.02em;}.cls-4{letter-spacing:-0.01em;}.cls-5{letter-spacing:-0.01em;}.cls-6{fill:#426e8c;}.cls-7{fill:#86acc7;}.cls-8{fill:#5289af;}</style></defs><g id="Layer_2" data-name="Layer 2"><g id="Layer_3" data-name="Layer 3"><text class="cls-1" transform="translate(97.72 54.39)"><tspan class="cls-2">P</tspan><tspan class="cls-3" x="24.52" y="0">r</tspan><tspan class="cls-4" x="37.89" y="0">o</tspan><tspan class="cls-2" x="66.24" y="0">j</tspan><tspan x="77.26" y="0">e</tspan><tspan class="cls-5" x="106.06" y="0">c</tspan><tspan x="134.64" y="0">ts</tspan></text><path class="cls-6" d="M36.42,50,28,43.25C34.51,22.3,11,22.34,11,22.34A23.71,23.71,0,0,1,14.27,20L0,14.64V62.36l7.89,3,17.71-19,8.08,6.74L21.21,70.53l17.46,6.73V48.05A11.56,11.56,0,0,0,36.42,50Z"/><path class="cls-7" d="M45.68,26.65l32.18-12L38.67,0,0,14.63,14.28,20C23.14,14.85,34,17,45.68,26.65Z"/><path class="cls-8" d="M77.85,14.64l-32.17,12a82.55,82.55,0,0,1,7.25,6.78s-.47,3.67,1.28,5.62,7.87.35,7.87.35L70,46.33,56.63,62.56,47.53,56c1.36-4.33-3.06-11.75-8.85-8V77.26L77.85,62.37Z"/></g></g></svg>